<svg width="212" height="203" viewBox="0 0 212 203" fill="none" xmlns="http://www.w3.org/2000/svg">
<g filter="url(#filter0_d_544_4675)">
<circle cx="110.543" cy="83.7816" r="79.7372" fill="#F6F6F6"/>
<circle cx="35.804" cy="29.9424" r="4.99777" fill="#F6F6F6"/>
<circle cx="165.065" cy="10.1783" r="9.31403" fill="#F6F6F6"/>
<circle cx="37.3942" cy="135.123" r="8.85969" fill="#F6F6F6"/>
<circle cx="195.96" cy="126.49" r="8.85969" fill="#F6F6F6"/>
<circle cx="178.695" cy="136.485" r="4.31626" fill="#F6F6F6"/>
<path d="M123.277 7.46888C123.013 7.41286 123.013 7.03692 123.277 6.9809L127.259 6.13399C127.355 6.11358 127.43 6.03877 127.451 5.94286L128.309 1.98831C128.365 1.7262 128.739 1.7262 128.796 1.98831L129.654 5.94286C129.674 6.03877 129.75 6.11358 129.846 6.13399L133.828 6.9809C134.092 7.03692 134.092 7.41286 133.828 7.46888L129.846 8.31579C129.75 8.33621 129.674 8.41101 129.654 8.50692L128.796 12.4615C128.739 12.7236 128.365 12.7236 128.309 12.4615L127.451 8.50692C127.43 8.41101 127.355 8.33621 127.259 8.31579L123.277 7.46888Z" fill="#212121"/>
<path d="M15.0055 95.6502C15.1072 95.1699 15.7928 95.1699 15.8945 95.6502L17.4133 102.825C17.4503 103 17.5864 103.137 17.7611 103.175L24.8622 104.722C25.3391 104.826 25.3391 105.506 24.8622 105.61L17.7611 107.157C17.5864 107.195 17.4503 107.332 17.4133 107.507L15.8945 114.682C15.7928 115.163 15.1072 115.163 15.0055 114.682L13.4867 107.507C13.4497 107.332 13.3136 107.195 13.1389 107.157L6.03779 105.61C5.56095 105.506 5.56094 104.826 6.03779 104.722L13.1389 103.175C13.3136 103.137 13.4497 103 13.4867 102.825L15.0055 95.6502Z" fill="#E1E0E4"/>
<path d="M181.805 32.0421C181.906 31.5617 182.592 31.5617 182.694 32.0421L183.58 36.228C183.617 36.4028 183.753 36.5398 183.928 36.5778L188.082 37.4829C188.559 37.5867 188.559 38.2668 188.082 38.3707L183.928 39.2758C183.753 39.3138 183.617 39.4507 183.58 39.6256L182.694 43.8115C182.592 44.2918 181.906 44.2918 181.805 43.8115L180.919 39.6256C180.882 39.4507 180.746 39.3138 180.571 39.2758L176.416 38.3707C175.94 38.2668 175.94 37.5867 176.416 37.4829L180.571 36.5778C180.746 36.5398 180.882 36.4028 180.919 36.228L181.805 32.0421Z" fill="#212121"/>
<path d="M200.121 99.1526L201.512 105.726L207.992 107.137L201.512 108.549L200.121 115.122L198.73 108.549L192.25 107.137L198.73 105.726L200.121 99.1526Z" fill="#E1E0E4"/>
<rect x="106.627" y="35.6836" width="86.0525" height="92.6514" rx="4.95551" transform="rotate(10 106.627 35.6836)" fill="white" stroke="#CBCBD0" stroke-width="1.78927"/>
<rect x="111.471" y="42.6003" width="73.6034" height="44.6083" rx="4.06088" transform="rotate(10 111.471 42.6003)" fill="#F6F6F6"/>
<rect x="23.3636" y="50.6259" width="86.0525" height="92.6514" rx="4.95551" transform="rotate(-10 23.3636 50.6259)" fill="white" stroke="#CBCBD0" stroke-width="1.78927"/>
<rect x="30.2804" y="55.4695" width="73.6034" height="46.6321" rx="4.06088" transform="rotate(-10 30.2804 55.4695)" fill="#F6F6F6"/>
<rect x="58.707" y="28.0741" width="102.658" height="110.558" rx="5.7558" fill="white" stroke="#212121" stroke-width="1.78927"/>
<rect x="65.5254" y="35.1855" width="88.4674" height="58.8189" rx="4.86116" fill="#E1E0E4"/>
<path d="M47.0938 181.824C47.5573 181.824 47.9427 181.86 48.25 181.933C48.5625 182.006 48.8229 182.134 49.0312 182.316C49.2448 182.493 49.4297 182.738 49.5859 183.05C49.7057 183.285 49.8307 183.613 49.9609 184.035C50.0911 184.451 50.2292 184.962 50.375 185.566L51.75 191.519H49.6484L48.8672 188.035C48.487 188.134 48.2188 188.266 48.0625 188.433C47.9062 188.6 47.7734 188.863 47.6641 189.222C47.6432 189.295 47.6094 189.423 47.5625 189.605C47.5208 189.782 47.4688 190.011 47.4062 190.292L47.1406 191.519H44.9922L45.3125 190.113C45.4062 189.681 45.5 189.308 45.5938 188.996C45.6875 188.678 45.7839 188.417 45.8828 188.214C46.0755 187.808 46.3229 187.485 46.625 187.246C46.9323 187.001 47.3542 186.798 47.8906 186.636L48.5156 186.449C48.4427 186.1 48.3698 185.787 48.2969 185.511C48.224 185.235 48.1562 184.998 48.0938 184.8C47.9635 184.399 47.8125 184.118 47.6406 183.957C47.4688 183.795 47.1901 183.714 46.8047 183.714H45.75V181.824H47.0938ZM55.3125 181.824V186.972H53.2031V181.824H55.3125ZM65.8984 190.16V191.519H57.7031V189.628H62.9531L57.0781 181.824H59.6094L62.5703 185.839C62.9141 185.673 63.1615 185.423 63.3125 185.089C63.4688 184.756 63.5781 184.269 63.6406 183.628L63.8125 181.824H65.9766L65.8125 183.644C65.7448 184.363 65.6302 184.925 65.4688 185.332C65.3073 185.727 65.0755 186.063 64.7734 186.339C64.4714 186.615 64.0573 186.86 63.5312 187.074L65.8984 190.16ZM76.2891 185.902V191.519H74.1719V185.886C74.1719 185.089 74.0026 184.529 73.6641 184.207C73.3255 183.878 72.737 183.714 71.8984 183.714H67.9375V181.824H72.0312C73.0573 181.824 73.8802 181.962 74.5 182.238C75.125 182.514 75.5781 182.951 75.8594 183.55C76.1458 184.144 76.2891 184.928 76.2891 185.902ZM70.2031 185.628V191.519H68.0938V185.628H70.2031ZM78.7422 189.714C80.013 189.298 81.0391 188.772 81.8203 188.136C82.362 187.704 82.776 187.233 83.0625 186.722C83.349 186.207 83.4922 185.667 83.4922 185.105C83.4922 184.178 82.9115 183.714 81.75 183.714H77.7812V178.511H79.9375V181.824H82.1016C84.4453 181.824 85.6172 182.847 85.6172 184.894C85.6172 185.873 85.3854 186.79 84.9219 187.644C84.4635 188.493 83.8073 189.251 82.9531 189.917C81.8281 190.792 80.4245 191.48 78.7422 191.98V189.714ZM101.117 185.902V191.519H92.2344V181.824H96.75C98.2917 181.824 99.4036 182.141 100.086 182.777C100.773 183.407 101.117 184.449 101.117 185.902ZM94.3438 189.628H99V186.144C99 185.259 98.8333 184.634 98.5 184.269C98.1667 183.899 97.5833 183.714 96.75 183.714H94.3438V189.628ZM105.547 181.824V186.972H103.438V181.824H105.547ZM115.172 185.902V191.519H113.055V185.886C113.055 185.079 112.88 184.516 112.531 184.199C112.188 183.876 111.607 183.714 110.789 183.714H107.539V181.824H110.914C111.94 181.824 112.763 181.962 113.383 182.238C114.008 182.509 114.461 182.944 114.742 183.542C115.029 184.136 115.172 184.923 115.172 185.902ZM125.352 190.16V191.519H117.156V189.628H122.406L116.531 181.824H119.062L122.023 185.839C122.367 185.673 122.615 185.423 122.766 185.089C122.922 184.756 123.031 184.269 123.094 183.628L123.266 181.824H125.43L125.266 183.644C125.198 184.363 125.083 184.925 124.922 185.332C124.76 185.727 124.529 186.063 124.227 186.339C123.924 186.615 123.51 186.86 122.984 187.074L125.352 190.16ZM129.672 181.824V191.519H127.562V181.824H129.672ZM137.562 181.777C138.891 181.777 139.857 182.167 140.461 182.949C141.065 183.725 141.367 184.938 141.367 186.589V191.519H136.328V189.628H139.242V186.753C139.242 185.654 139.109 184.868 138.844 184.394C138.583 183.915 138.122 183.675 137.461 183.675C136.852 183.675 136.339 183.98 135.922 184.589C135.505 185.214 135.117 186.256 134.758 187.714L133.812 191.519H131.562L132.617 187.472C132.747 186.983 132.872 186.545 132.992 186.16C133.117 185.774 133.237 185.444 133.352 185.167L131.414 181.933H133.75L134.484 183.308C134.797 182.829 135.224 182.454 135.766 182.183C136.312 181.912 136.911 181.777 137.562 181.777ZM150.281 181.824V194.527H148.172V181.824H150.281ZM155.109 181.824V186.972H153V181.824H155.109ZM159.656 188.691L159.172 191.519H156.984L157.641 188.285C157.828 187.389 158 186.751 158.156 186.371C158.312 185.985 158.505 185.681 158.734 185.457C158.969 185.227 159.292 185.024 159.703 184.847L157.445 181.824H160.008L163.172 186.207C163.5 185.91 163.75 185.561 163.922 185.16C164.094 184.759 164.216 184.217 164.289 183.535L164.453 181.824H166.609L166.422 183.675C166.365 184.201 166.26 184.667 166.109 185.074C166.005 185.35 165.878 185.61 165.727 185.855C165.576 186.095 165.378 186.35 165.133 186.621C164.893 186.886 164.576 187.196 164.18 187.55L167.094 191.519H164.547L160.648 186.113C160.372 186.274 160.174 186.509 160.055 186.816C159.997 186.972 159.935 187.207 159.867 187.519C159.799 187.832 159.729 188.222 159.656 188.691Z" fill="#31312B"/>
</g>
<defs>
<filter id="filter0_d_544_4675" x="0" y="0.864258" width="212" height="204.655" filterUnits="userSpaceOnUse" color-interpolation-filters="sRGB">
<feFlood flood-opacity="0" result="BackgroundImageFix"/>
<feColorMatrix in="SourceAlpha" type="matrix" values="0 0 0 0 0 0 0 0 0 0 0 0 0 0 0 0 0 0 127 0" result="hardAlpha"/>
<feOffset dy="4"/>
<feGaussianBlur stdDeviation="2"/>
<feComposite in2="hardAlpha" operator="out"/>
<feColorMatrix type="matrix" values="0 0 0 0 0 0 0 0 0 0 0 0 0 0 0 0 0 0 0.25 0"/>
<feBlend mode="normal" in2="BackgroundImageFix" result="effect1_dropShadow_544_4675"/>
<feBlend mode="normal" in="SourceGraphic" in2="effect1_dropShadow_544_4675" result="shape"/>
</filter>
</defs>
</svg>
