<svg width="184" height="202" viewBox="0 0 184 202" fill="none" xmlns="http://www.w3.org/2000/svg">
<circle cx="92.004" cy="92.8757" r="75.2143" fill="#F6F6F6"/>
<circle cx="21.504" cy="42.09" r="4.71153" fill="#F6F6F6" stroke="#212121" stroke-width="0.00551175"/>
<circle cx="118.147" cy="8.87568" r="8.78058" fill="#F6F6F6" stroke="#212121" stroke-width="0.0102719"/>
<circle cx="28.5753" cy="152.876" r="8.35226" fill="#F6F6F6" stroke="#212121" stroke-width="0.00977084"/>
<circle cx="172.575" cy="133.161" r="8.35226" fill="#F6F6F6" stroke="#212121" stroke-width="0.00977084"/>
<circle cx="156.29" cy="142.59" r="4.06905" fill="#F6F6F6" stroke="#212121" stroke-width="0.00476015"/>
<path d="M96.3005 21.3201C96.052 21.2673 96.052 20.9127 96.3005 20.8598L100.057 20.0609C100.148 20.0417 100.219 19.9711 100.238 19.8807L101.047 16.1504C101.101 15.9032 101.453 15.9032 101.507 16.1504L102.316 19.8807C102.335 19.9711 102.406 20.0417 102.497 20.0609L106.254 20.8598C106.502 20.9127 106.502 21.2673 106.254 21.3201L102.497 22.119C102.406 22.1382 102.335 22.2088 102.316 22.2993L101.507 26.0295C101.453 26.2768 101.101 26.2768 101.047 26.0295L100.238 22.2993C100.219 22.2088 100.148 22.1382 100.057 22.119L96.3005 21.3201Z" fill="#212121"/>
<path d="M10.4566 98.0708C10.5525 97.6177 11.1992 97.6177 11.2952 98.0708L12.7278 104.839C12.7627 105.004 12.8911 105.133 13.0558 105.169L19.7542 106.628C20.204 106.726 20.204 107.368 19.7542 107.466L13.0558 108.925C12.8911 108.961 12.7627 109.09 12.7278 109.255L11.2952 116.023C11.1992 116.476 10.5525 116.476 10.4566 116.023L9.02396 109.255C8.98905 109.09 8.86065 108.961 8.6959 108.925L1.99755 107.466C1.54775 107.368 1.54775 106.726 1.99755 106.628L8.69591 105.169C8.86065 105.133 8.98905 105.004 9.02396 104.839L10.4566 98.0708Z" fill="#212121"/>
<path d="M159.223 44.0708C159.319 43.6177 159.966 43.6177 160.062 44.0708L160.897 48.0192C160.932 48.1842 161.061 48.3134 161.226 48.3492L165.144 49.203C165.594 49.3009 165.594 49.9425 165.144 50.0405L161.226 50.8942C161.061 50.9301 160.932 51.0592 160.897 51.2242L160.062 55.1726C159.966 55.6257 159.319 55.6257 159.223 55.1726L158.387 51.2242C158.352 51.0592 158.224 50.9301 158.059 50.8942L154.14 50.0405C153.691 49.9425 153.691 49.3009 154.14 49.203L158.059 48.3492C158.224 48.3134 158.352 48.1842 158.387 48.0192L159.223 44.0708Z" fill="#212121"/>
<path d="M176.5 107.375L177.813 113.575L183.925 114.906L177.813 116.238L176.5 122.438L175.188 116.238L169.076 114.906L175.188 113.575L176.5 107.375Z" fill="white"/>
<path d="M134.647 58.8042L33.2897 97.5899L54.9325 157.804L68.004 163.59L84.2897 167.018L100.79 166.376L110.433 164.661L119.004 162.09L133.147 154.804L145.147 145.376L146.073 144.178C151.303 137.418 155.94 130.219 159.933 122.661L134.647 58.8042Z" fill="#F6F6F6" stroke="#212121" stroke-width="0.428571"/>
<path d="M41.0039 80.4471L30.2896 74.4471L123.29 39.3042L118.361 51.5185L122.004 62.8756L45.0753 92.2328L41.0039 80.4471Z" fill="#E1E0E4" stroke="#212121" stroke-width="1.71429"/>
<path d="M54.5039 157.59V157.59C63.8818 162.385 74.0346 165.481 84.4921 166.736L84.7533 166.768L92.2093 166.768C97.7942 166.768 103.363 166.173 108.822 164.995L110.671 164.595C116.507 163.335 122.143 161.277 127.418 158.48V158.48C131.535 156.297 135.404 153.678 138.961 150.669L140.115 149.692C143.202 147.08 146.066 144.216 148.678 141.13V141.13C152.335 136.808 155.476 132.075 158.038 127.026L160.361 122.447" stroke="#212121" stroke-width="1.71429"/>
<path d="M32.4676 96.6962L54.9327 158.005" stroke="#212121" stroke-width="1.71429"/>
<path d="M135.539 58.7676L160.185 123.164" stroke="#212121" stroke-width="1.71429"/>
<path d="M28.6105 74.6248L124.608 38.5527" stroke="#212121" stroke-width="1.71429"/>
<path d="M31.9711 97.8005L134.189 58.3805L119.12 51.3823C118.687 51.1814 118.502 50.6658 118.708 50.2354L123.955 39.2546" stroke="#212121" stroke-width="1.71429"/>
<path d="M29.4717 74.3287L40.277 80.1219C40.6877 80.3421 40.8473 80.8501 40.6361 81.2656L32.4676 97.3391" stroke="#212121" stroke-width="1.71429"/>
<path d="M29.039 73.5533L36.0014 90.9568" stroke="#212121" stroke-width="1.71429"/>
<path d="M40.7896 81.09L45.0753 93.09" stroke="#212121" stroke-width="1.71429"/>
<path d="M118.79 51.09L123.075 63.5185" stroke="#212121" stroke-width="1.71429"/>
<path d="M124.03 39.4553L130.182 56.4105" stroke="#212121" stroke-width="1.71429"/>
<circle cx="72.7182" cy="92.0186" r="4.5" fill="#E1E0E4"/>
<circle cx="72.7182" cy="92.0186" r="4.5" stroke="#212121"/>
<circle cx="66.2896" cy="68.8757" r="3.21429" fill="#F6F6F6"/>
<circle cx="66.2896" cy="68.8757" r="3.21429" stroke="#212121"/>
<circle cx="101.004" cy="81.3042" r="4.5" fill="#E1E0E4"/>
<circle cx="101.004" cy="81.3042" r="4.5" stroke="#212121"/>
<circle cx="86.0039" cy="61.59" r="3.21429" fill="#F6F6F6"/>
<circle cx="86.0039" cy="61.59" r="3.21429" stroke="#212121"/>
<path d="M41.5391 190.383V196H39.4219V190.367C39.4219 189.57 39.2526 189.01 38.9141 188.688C38.5755 188.359 37.987 188.195 37.1484 188.195H33.1875V186.305H37.2812C38.3073 186.305 39.1302 186.443 39.75 186.719C40.375 186.995 40.8281 187.432 41.1094 188.031C41.3958 188.625 41.5391 189.409 41.5391 190.383ZM35.4531 190.109V196H33.3438V190.109H35.4531ZM52.3984 189.523C52.3984 190.513 52.1979 191.438 51.7969 192.297C51.3958 193.156 50.8073 193.927 50.0312 194.609C49.2604 195.292 48.3151 195.862 47.1953 196.32V194.078C48.1745 193.62 48.9297 193.01 49.4609 192.25C49.9974 191.484 50.2656 190.659 50.2656 189.773C50.2656 189.19 50.1198 188.781 49.8281 188.547C49.5365 188.312 49.026 188.195 48.2969 188.195H43.7734V186.305H48.6016C49.9245 186.305 50.888 186.557 51.4922 187.062C52.0964 187.562 52.3984 188.383 52.3984 189.523ZM46.2812 190.047V199.008H44.1719V190.047H46.2812ZM56.75 186.305V191.453H54.6406V186.305H56.75ZM66.0469 190.383V196H63.9297V190.367C63.9297 189.56 63.7552 188.997 63.4062 188.68C63.0625 188.357 62.4818 188.195 61.6641 188.195H58.4141V186.305H61.7891C62.8151 186.305 63.638 186.443 64.2578 186.719C64.8828 186.99 65.3359 187.424 65.6172 188.023C65.9036 188.617 66.0469 189.404 66.0469 190.383ZM79.4219 190.383V199.008H77.3047V190.367C77.3047 189.56 77.1302 188.997 76.7812 188.68C76.4375 188.357 75.8568 188.195 75.0391 188.195H71.7891V186.305H75.1641C76.1901 186.305 77.013 186.443 77.6328 186.719C78.2578 186.99 78.7109 187.424 78.9922 188.023C79.2786 188.617 79.4219 189.404 79.4219 190.383ZM81.8828 194.195C83.1536 193.779 84.1797 193.253 84.9609 192.617C85.5026 192.185 85.9167 191.714 86.2031 191.203C86.4896 190.688 86.6328 190.148 86.6328 189.586C86.6328 188.659 86.0521 188.195 84.8906 188.195H80.9219V182.992H83.0781V186.305H85.2422C87.5859 186.305 88.7578 187.328 88.7578 189.375C88.7578 190.354 88.526 191.271 88.0625 192.125C87.6042 192.974 86.9479 193.732 86.0938 194.398C84.9688 195.273 83.5651 195.961 81.8828 196.461V194.195ZM99.4141 195.039C98.987 195.279 98.4609 195.477 97.8359 195.633C97.2161 195.784 96.4427 195.896 95.5156 195.969C94.5938 196.042 93.4661 196.078 92.1328 196.078L90.3047 186.305H92.5156L93.3672 190.977L93.9375 190.867C94.2917 190.799 94.5521 190.685 94.7188 190.523C94.8906 190.357 95.0208 190.109 95.1094 189.781C95.151 189.62 95.1901 189.396 95.2266 189.109C95.2682 188.818 95.3073 188.464 95.3438 188.047L95.4609 186.305H97.6172L97.3828 188.977C97.3516 189.341 97.3073 189.669 97.25 189.961C97.1927 190.253 97.1198 190.505 97.0312 190.719C96.8594 191.146 96.6172 191.479 96.3047 191.719C95.9974 191.958 95.5078 192.159 94.8359 192.32L93.6641 192.594L93.9844 194.195H94.1719C94.8229 194.195 95.3984 194.169 95.8984 194.117C96.4036 194.06 96.8333 193.974 97.1875 193.859C97.6615 193.714 98.0521 193.51 98.3594 193.25C98.6667 192.984 98.9089 192.633 99.0859 192.195C99.263 191.753 99.388 191.193 99.4609 190.516L99.9531 186.305H102.133L101.633 190.461C101.529 191.357 101.383 192.099 101.195 192.688C101.013 193.276 100.776 193.755 100.484 194.125C100.198 194.49 99.8411 194.794 99.4141 195.039ZM116.445 190.383V196H114.328V190.367C114.328 189.57 114.159 189.01 113.82 188.688C113.482 188.359 112.893 188.195 112.055 188.195H108.094V186.305H112.188C113.214 186.305 114.036 186.443 114.656 186.719C115.281 186.995 115.734 187.432 116.016 188.031C116.302 188.625 116.445 189.409 116.445 190.383ZM110.359 190.109V196H108.25V190.109H110.359ZM118.898 194.195C120.169 193.779 121.195 193.253 121.977 192.617C122.518 192.185 122.932 191.714 123.219 191.203C123.505 190.688 123.648 190.148 123.648 189.586C123.648 188.659 123.068 188.195 121.906 188.195H117.938V182.992H120.094V186.305H122.258C124.602 186.305 125.773 187.328 125.773 189.375C125.773 190.354 125.542 191.271 125.078 192.125C124.62 192.974 123.964 193.732 123.109 194.398C121.984 195.273 120.581 195.961 118.898 196.461V194.195ZM129.141 186.305C129.604 186.305 129.99 186.341 130.297 186.414C130.609 186.487 130.87 186.615 131.078 186.797C131.292 186.974 131.477 187.219 131.633 187.531C131.753 187.766 131.878 188.094 132.008 188.516C132.138 188.932 132.276 189.443 132.422 190.047L133.797 196H131.695L130.914 192.516C130.534 192.615 130.266 192.747 130.109 192.914C129.953 193.081 129.82 193.344 129.711 193.703C129.69 193.776 129.656 193.904 129.609 194.086C129.568 194.263 129.516 194.492 129.453 194.773L129.188 196H127.039L127.359 194.594C127.453 194.161 127.547 193.789 127.641 193.477C127.734 193.159 127.831 192.898 127.93 192.695C128.122 192.289 128.37 191.966 128.672 191.727C128.979 191.482 129.401 191.279 129.938 191.117L130.562 190.93C130.49 190.581 130.417 190.268 130.344 189.992C130.271 189.716 130.203 189.479 130.141 189.281C130.01 188.88 129.859 188.599 129.688 188.438C129.516 188.276 129.237 188.195 128.852 188.195H127.797V186.305H129.141ZM134.867 194.289C136.216 194.263 137.26 194.13 138 193.891L135.234 186.305H137.523L139.828 192.945C140.224 192.628 140.539 192.195 140.773 191.648C141.013 191.096 141.188 190.385 141.297 189.516C141.406 188.641 141.461 187.57 141.461 186.305H143.633C143.633 188.799 143.357 190.742 142.805 192.133C142.435 193.07 141.917 193.841 141.25 194.445C140.583 195.044 139.729 195.497 138.688 195.805C137.646 196.112 136.372 196.299 134.867 196.367V194.289ZM153.977 190.383V196H151.859V190.367C151.859 189.57 151.69 189.01 151.352 188.688C151.013 188.359 150.424 188.195 149.586 188.195H145.625V186.305H149.719C150.745 186.305 151.568 186.443 152.188 186.719C152.812 186.995 153.266 187.432 153.547 188.031C153.833 188.625 153.977 189.409 153.977 190.383ZM147.891 190.109V196H145.781V190.109H147.891Z" fill="#31312B"/>
</svg>
