<svg width="183" height="207" viewBox="0 0 183 207" fill="none" xmlns="http://www.w3.org/2000/svg">
<circle cx="89.8572" cy="90.2143" r="75.2143" fill="#F6F6F6"/>
<circle cx="19.3572" cy="39.4286" r="4.71429" fill="#F6F6F6"/>
<circle cx="143.429" cy="8.78568" r="8.78571" fill="#F6F6F6"/>
<circle cx="20.8571" cy="138.643" r="8.35714" fill="#F6F6F6"/>
<circle cx="170.429" cy="130.5" r="8.35714" fill="#F6F6F6"/>
<circle cx="154.143" cy="139.929" r="4.07143" fill="#F6F6F6"/>
<path d="M174.354 104.713L175.666 110.913L181.778 112.245L175.666 113.576L174.354 119.777L173.041 113.576L166.93 112.245L173.041 110.913L174.354 104.713Z" fill="white"/>
<path d="M166.505 41.4094C166.601 40.9563 167.248 40.9563 167.343 41.4094L168.179 45.3578C168.214 45.5228 168.343 45.6519 168.507 45.6878L172.426 46.5416C172.876 46.6395 172.876 47.2811 172.426 47.3791L168.507 48.2328C168.343 48.2687 168.214 48.3978 168.179 48.5628L167.343 52.5112C167.248 52.9643 166.601 52.9643 166.505 52.5112L165.669 48.5628C165.634 48.3978 165.506 48.2687 165.341 48.2328L161.422 47.3791C160.972 47.2811 160.972 46.6395 161.422 46.5416L165.341 45.6878C165.506 45.6519 165.634 45.5228 165.669 45.3578L166.505 41.4094Z" fill="#212121"/>
<path d="M10.8813 93.2665C10.9772 92.8134 11.6239 92.8134 11.7198 93.2665L13.1524 100.035C13.1874 100.2 13.3158 100.329 13.4805 100.365L20.1789 101.824C20.6287 101.922 20.6287 102.563 20.1789 102.661L13.4805 104.121C13.3158 104.157 13.1874 104.286 13.1524 104.451L11.7198 111.219C11.6239 111.672 10.9772 111.672 10.8813 111.219L9.44862 104.451C9.41371 104.286 9.28531 104.157 9.12056 104.121L2.42221 102.661C1.97241 102.563 1.97241 101.922 2.42221 101.824L9.12056 100.365C9.28531 100.329 9.41371 100.2 9.44862 100.035L10.8813 93.2665Z" fill="#212121"/>
<path d="M37.5822 21.2301C37.3338 21.1773 37.3338 20.8227 37.5822 20.7698L41.3389 19.9709C41.4295 19.9517 41.5003 19.8811 41.52 19.7907L42.3288 16.0604C42.3824 15.8132 42.7351 15.8132 42.7887 16.0604L43.5976 19.7907C43.6172 19.8811 43.6881 19.9517 43.7786 19.9709L47.5353 20.7698C47.7838 20.8227 47.7838 21.1773 47.5353 21.2301L43.7786 22.029C43.6881 22.0482 43.6172 22.1188 43.5976 22.2093L42.7887 25.9395C42.7351 26.1868 42.3824 26.1868 42.3288 25.9395L41.52 22.2093C41.5003 22.1188 41.4295 22.0482 41.3389 22.029L37.5822 21.2301Z" fill="#212121"/>
<circle cx="101.071" cy="69.8571" r="47.5714" fill="#E1E0E4" stroke="#212121" stroke-width="1.71429"/>
<circle cx="101.071" cy="69.8571" r="39.8571" fill="#F6F6F6" stroke="#212121" stroke-width="1.71429"/>
<path d="M39.0329 157.983L64.744 122.273L65.8867 121.416L68.4578 120.845H72.1716L74.1714 122.273L76.1711 123.13L77.8852 125.13L79.3136 128.272L57.0307 170.267L54.4596 171.695H51.3171L47.0319 170.267L43.6038 168.838L40.4613 164.553L39.0329 162.839V157.983Z" fill="#E1E0E4"/>
<path d="M84.1702 114.56L77.6521 125.13" stroke="#212121" stroke-width="1.71429"/>
<path d="M76.5093 111.131L70.2244 120.559" stroke="#212121" stroke-width="1.71429"/>
<path d="M66.4581 120.845L38.7472 158.84" stroke="#212121" stroke-width="1.71429"/>
<path d="M79.0281 127.701L56.7451 170.838" stroke="#212121" stroke-width="1.71429"/>
<path d="M65.8868 121.416L66.3571 121.154C67.3858 120.581 68.568 120.344 69.738 120.477V120.477C70.2158 120.531 70.6847 120.646 71.1333 120.819L71.9385 121.13L72.2099 121.221C73.7222 121.725 75.0964 122.574 76.2236 123.701V123.701L77.1097 124.587C77.4699 124.947 77.7846 125.351 78.0466 125.787V125.787C78.3533 126.298 78.5851 126.851 78.7348 127.428L79.028 128.558" stroke="#212121" stroke-width="1.71429"/>
<path d="M57.3163 170.267L56.0995 170.814C54.9209 171.344 53.6496 171.638 52.3578 171.678V171.678C51.3546 171.71 50.3524 171.588 49.3858 171.318L48.5663 171.088L48.2914 170.995C45.8628 170.171 43.651 168.81 41.8204 167.014V167.014L40.7621 165.976C39.9347 165.164 39.3146 164.165 38.9541 163.063V163.063C38.5056 161.693 38.4771 160.219 38.8722 158.832L39.0329 158.268" stroke="#212121" stroke-width="1.71429"/>
<path d="M47.4375 195.383V201H45.3203V195.367C45.3203 194.56 45.1458 193.997 44.7969 193.68C44.4531 193.357 43.8724 193.195 43.0547 193.195H39.8047V191.305H43.1797C44.2057 191.305 45.0286 191.443 45.6484 191.719C46.2734 191.99 46.7266 192.424 47.0078 193.023C47.2943 193.617 47.4375 194.404 47.4375 195.383ZM57.6172 199.641V201H49.4219V199.109H54.6719L48.7969 191.305H51.3281L54.2891 195.32C54.6328 195.154 54.8802 194.904 55.0312 194.57C55.1875 194.237 55.2969 193.75 55.3594 193.109L55.5312 191.305H57.6953L57.5312 193.125C57.4635 193.844 57.349 194.406 57.1875 194.812C57.026 195.208 56.7943 195.544 56.4922 195.82C56.1901 196.096 55.776 196.341 55.25 196.555L57.6172 199.641ZM61.9375 191.305V201H59.8281V191.305H61.9375ZM69.8281 191.258C71.1562 191.258 72.1224 191.648 72.7266 192.43C73.3307 193.206 73.6328 194.419 73.6328 196.07V201H68.5938V199.109H71.5078V196.234C71.5078 195.135 71.375 194.349 71.1094 193.875C70.849 193.396 70.388 193.156 69.7266 193.156C69.1172 193.156 68.6042 193.461 68.1875 194.07C67.7708 194.695 67.3828 195.737 67.0234 197.195L66.0781 201H63.8281L64.8828 196.953C65.013 196.464 65.138 196.026 65.2578 195.641C65.3828 195.255 65.5026 194.924 65.6172 194.648L63.6797 191.414H66.0156L66.75 192.789C67.0625 192.31 67.4896 191.935 68.0312 191.664C68.5781 191.393 69.1771 191.258 69.8281 191.258ZM82.2656 198.172L81.7812 201H79.5938L80.25 197.766C80.4375 196.87 80.6094 196.232 80.7656 195.852C80.9219 195.466 81.1146 195.161 81.3438 194.938C81.5781 194.708 81.901 194.505 82.3125 194.328L80.0547 191.305H82.6172L85.7812 195.688C86.1094 195.391 86.3594 195.042 86.5312 194.641C86.7031 194.24 86.8255 193.698 86.8984 193.016L87.0625 191.305H89.2188L89.0312 193.156C88.974 193.682 88.8698 194.148 88.7188 194.555C88.6146 194.831 88.487 195.091 88.3359 195.336C88.1849 195.576 87.987 195.831 87.7422 196.102C87.5026 196.367 87.1849 196.677 86.7891 197.031L89.7031 201H87.1562L83.2578 195.594C82.9818 195.755 82.7839 195.99 82.6641 196.297C82.6068 196.453 82.5443 196.688 82.4766 197C82.4089 197.312 82.3385 197.703 82.2656 198.172ZM98.8984 199.641V201H90.7031V199.109H95.9531L90.0781 191.305H92.6094L95.5703 195.32C95.9141 195.154 96.1615 194.904 96.3125 194.57C96.4688 194.237 96.5781 193.75 96.6406 193.109L96.8125 191.305H98.9766L98.8125 193.125C98.7448 193.844 98.6302 194.406 98.4688 194.812C98.3073 195.208 98.0755 195.544 97.7734 195.82C97.4714 196.096 97.0573 196.341 96.5312 196.555L98.8984 199.641ZM106.281 191.258C107.609 191.258 108.576 191.648 109.18 192.43C109.784 193.206 110.086 194.419 110.086 196.07V201H105.047V199.109H107.961V196.234C107.961 195.135 107.828 194.349 107.562 193.875C107.302 193.396 106.841 193.156 106.18 193.156C105.57 193.156 105.057 193.461 104.641 194.07C104.224 194.695 103.836 195.737 103.477 197.195L102.531 201H100.281L101.336 196.953C101.466 196.464 101.591 196.026 101.711 195.641C101.836 195.255 101.956 194.924 102.07 194.648L100.133 191.414H102.469L103.203 192.789C103.516 192.31 103.943 191.935 104.484 191.664C105.031 191.393 105.63 191.258 106.281 191.258ZM116.992 195.125V201H111.938V199.109H114.883V195.531C114.883 194.828 114.836 194.326 114.742 194.023C114.648 193.727 114.492 193.516 114.273 193.391C114.055 193.26 113.734 193.195 113.312 193.195H112.383V191.305H113.711C114.607 191.305 115.276 191.424 115.719 191.664C116.161 191.904 116.484 192.297 116.688 192.844C116.891 193.391 116.992 194.151 116.992 195.125ZM125.625 198.172L125.141 201H122.953L123.609 197.766C123.797 196.87 123.969 196.232 124.125 195.852C124.281 195.466 124.474 195.161 124.703 194.938C124.938 194.708 125.26 194.505 125.672 194.328L123.414 191.305H125.977L129.141 195.688C129.469 195.391 129.719 195.042 129.891 194.641C130.062 194.24 130.185 193.698 130.258 193.016L130.422 191.305H132.578L132.391 193.156C132.333 193.682 132.229 194.148 132.078 194.555C131.974 194.831 131.846 195.091 131.695 195.336C131.544 195.576 131.346 195.831 131.102 196.102C130.862 196.367 130.544 196.677 130.148 197.031L133.062 201H130.516L126.617 195.594C126.341 195.755 126.143 195.99 126.023 196.297C125.966 196.453 125.904 196.688 125.836 197C125.768 197.312 125.698 197.703 125.625 198.172ZM134.867 199.195C136.138 198.779 137.164 198.253 137.945 197.617C138.487 197.185 138.901 196.714 139.188 196.203C139.474 195.688 139.617 195.148 139.617 194.586C139.617 193.659 139.036 193.195 137.875 193.195H133.906V187.992H136.062V191.305H138.227C140.57 191.305 141.742 192.328 141.742 194.375C141.742 195.354 141.51 196.271 141.047 197.125C140.589 197.974 139.932 198.732 139.078 199.398C137.953 200.273 136.549 200.961 134.867 201.461V199.195Z" fill="#31312B"/>
</svg>
