<svg width="204" height="198" viewBox="0 0 204 198" fill="none" xmlns="http://www.w3.org/2000/svg">
<circle cx="106.543" cy="83.7816" r="79.7372" fill="#F6F6F6"/>
<circle cx="31.804" cy="29.9424" r="4.99777" fill="#F6F6F6"/>
<circle cx="161.065" cy="10.1783" r="9.31403" fill="#F6F6F6"/>
<circle cx="33.3942" cy="135.123" r="8.85969" fill="#F6F6F6"/>
<circle cx="191.96" cy="126.49" r="8.85969" fill="#F6F6F6"/>
<circle cx="174.695" cy="136.485" r="4.31626" fill="#F6F6F6"/>
<path d="M119.277 7.46888C119.013 7.41286 119.013 7.03692 119.277 6.9809L123.259 6.13399C123.355 6.11358 123.43 6.03877 123.451 5.94286L124.309 1.98831C124.365 1.7262 124.739 1.7262 124.796 1.98831L125.654 5.94286C125.674 6.03877 125.75 6.11358 125.846 6.13399L129.828 6.9809C130.092 7.03692 130.092 7.41286 129.828 7.46888L125.846 8.31579C125.75 8.33621 125.674 8.41101 125.654 8.50692L124.796 12.4615C124.739 12.7236 124.365 12.7236 124.309 12.4615L123.451 8.50692C123.43 8.41101 123.355 8.33621 123.259 8.31579L119.277 7.46888Z" fill="#212121"/>
<path d="M11.0055 95.6502C11.1072 95.1699 11.7928 95.1699 11.8945 95.6502L13.4133 102.825C13.4503 103 13.5864 103.137 13.7611 103.175L20.8622 104.722C21.3391 104.826 21.3391 105.506 20.8622 105.61L13.7611 107.157C13.5864 107.195 13.4503 107.332 13.4133 107.507L11.8945 114.682C11.7928 115.163 11.1072 115.163 11.0055 114.682L9.48673 107.507C9.44971 107.332 9.3136 107.195 9.13894 107.157L2.03779 105.61C1.56095 105.506 1.56094 104.826 2.03779 104.722L9.13894 103.175C9.3136 103.137 9.44971 103 9.48673 102.825L11.0055 95.6502Z" fill="#E1E0E4"/>
<path d="M177.805 32.0421C177.906 31.5617 178.592 31.5617 178.694 32.0421L179.58 36.228C179.617 36.4028 179.753 36.5398 179.928 36.5778L184.082 37.4829C184.559 37.5867 184.559 38.2668 184.082 38.3707L179.928 39.2758C179.753 39.3138 179.617 39.4507 179.58 39.6256L178.694 43.8115C178.592 44.2918 177.906 44.2918 177.805 43.8115L176.919 39.6256C176.882 39.4507 176.746 39.3138 176.571 39.2758L172.416 38.3707C171.94 38.2668 171.94 37.5867 172.416 37.4829L176.571 36.5778C176.746 36.5398 176.882 36.4028 176.919 36.228L177.805 32.0421Z" fill="#212121"/>
<path d="M196.121 99.1526L197.512 105.726L203.992 107.137L197.512 108.549L196.121 115.122L194.73 108.549L188.25 107.137L194.73 105.726L196.121 99.1526Z" fill="#E1E0E4"/>
<rect x="-1.04987" y="-0.734429" width="85.388" height="111.714" rx="4.95551" transform="matrix(0.986872 -0.161502 0.186647 0.982427 25.1233 42.9235)" fill="white" stroke="#CBCBD0" stroke-width="1.78927"/>
<path d="M129.873 24.1507L129.695 24.0695H129.5H61.8612C58.6823 24.0695 56.1054 26.6464 56.1054 29.8253V149.139C56.1054 152.318 58.6823 154.895 61.8612 154.895H153.008C156.187 154.895 158.764 152.318 158.764 149.139V37.9576V37.3834L158.242 37.1442L129.873 24.1507Z" fill="white" stroke="#212121" stroke-width="1.78927"/>
<path d="M129 24.5L129.355 40.6329C129.427 43.9102 132.656 46.1782 135.763 45.134L158.5 37.4935" stroke="#212121" stroke-width="1.78927"/>
<path fill-rule="evenodd" clip-rule="evenodd" d="M69 53C68.4477 53 68 53.4477 68 54C68 54.5523 68.4477 55 69 55H111.5C112.052 55 112.5 54.5523 112.5 54C112.5 53.4477 112.052 53 111.5 53H69ZM69 66C68.4477 66 68 66.4477 68 67C68 67.5523 68.4477 68 69 68H144C144.552 68 145 67.5523 145 67C145 66.4477 144.552 66 144 66H69ZM68 80C68 79.4477 68.4477 79 69 79H144C144.552 79 145 79.4477 145 80C145 80.5523 144.552 81 144 81H69C68.4477 81 68 80.5523 68 80ZM69 92C68.4477 92 68 92.4477 68 93C68 93.5523 68.4477 94 69 94H118C118.552 94 119 93.5523 119 93C119 92.4477 118.552 92 118 92H69Z" fill="black"/>
<path d="M43.0391 185.902V191.519H40.9219V185.886C40.9219 185.089 40.7526 184.529 40.4141 184.207C40.0755 183.878 39.487 183.714 38.6484 183.714H34.6875V181.824H38.7812C39.8073 181.824 40.6302 181.962 41.25 182.238C41.875 182.514 42.3281 182.951 42.6094 183.55C42.8958 184.144 43.0391 184.928 43.0391 185.902ZM36.9531 185.628V191.519H34.8438V185.628H36.9531ZM46.9062 181.824C47.3698 181.824 47.7552 181.86 48.0625 181.933C48.375 182.006 48.6354 182.134 48.8438 182.316C49.0573 182.493 49.2422 182.738 49.3984 183.05C49.5182 183.285 49.6432 183.613 49.7734 184.035C49.9036 184.451 50.0417 184.962 50.1875 185.566L51.5625 191.519H49.4609L48.6797 188.035C48.2995 188.134 48.0312 188.266 47.875 188.433C47.7188 188.6 47.5859 188.863 47.4766 189.222C47.4557 189.295 47.4219 189.423 47.375 189.605C47.3333 189.782 47.2812 190.011 47.2188 190.292L46.9531 191.519H44.8047L45.125 190.113C45.2188 189.681 45.3125 189.308 45.4062 188.996C45.5 188.678 45.5964 188.417 45.6953 188.214C45.888 187.808 46.1354 187.485 46.4375 187.246C46.7448 187.001 47.1667 186.798 47.7031 186.636L48.3281 186.449C48.2552 186.1 48.1823 185.787 48.1094 185.511C48.0365 185.235 47.9688 184.998 47.9062 184.8C47.776 184.399 47.625 184.118 47.4531 183.957C47.2812 183.795 47.0026 183.714 46.6172 183.714H45.5625V181.824H46.9062ZM60.8828 190.16V191.519H52.6875V189.628H57.9375L52.0625 181.824H54.5938L57.5547 185.839C57.8984 185.673 58.1458 185.423 58.2969 185.089C58.4531 184.756 58.5625 184.269 58.625 183.628L58.7969 181.824H60.9609L60.7969 183.644C60.7292 184.363 60.6146 184.925 60.4531 185.332C60.2917 185.727 60.0599 186.063 59.7578 186.339C59.4557 186.615 59.0417 186.86 58.5156 187.074L60.8828 190.16ZM71.2734 185.902V191.519H69.1562V185.886C69.1562 185.089 68.987 184.529 68.6484 184.207C68.3099 183.878 67.7214 183.714 66.8828 183.714H62.9219V181.824H67.0156C68.0417 181.824 68.8646 181.962 69.4844 182.238C70.1094 182.514 70.5625 182.951 70.8438 183.55C71.1302 184.144 71.2734 184.928 71.2734 185.902ZM65.1875 185.628V191.519H63.0781V185.628H65.1875ZM73.7266 189.714C74.9974 189.298 76.0234 188.772 76.8047 188.136C77.3464 187.704 77.7604 187.233 78.0469 186.722C78.3333 186.207 78.4766 185.667 78.4766 185.105C78.4766 184.178 77.8958 183.714 76.7344 183.714H72.7656V178.511H74.9219V181.824H77.0859C79.4297 181.824 80.6016 182.847 80.6016 184.894C80.6016 185.873 80.3698 186.79 79.9062 187.644C79.4479 188.493 78.7917 189.251 77.9375 189.917C76.8125 190.792 75.4089 191.48 73.7266 191.98V189.714ZM96.1016 185.902V191.519H87.2188V181.824H91.7344C93.276 181.824 94.388 182.141 95.0703 182.777C95.7578 183.407 96.1016 184.449 96.1016 185.902ZM89.3281 189.628H93.9844V186.144C93.9844 185.259 93.8177 184.634 93.4844 184.269C93.151 183.899 92.5677 183.714 91.7344 183.714H89.3281V189.628ZM100.531 181.824V186.972H98.4219V181.824H100.531ZM110.188 186.863C110.188 189.967 108.604 191.519 105.438 191.519H102.844V189.628H105.32C106.253 189.628 106.943 189.394 107.391 188.925C107.839 188.457 108.062 187.743 108.062 186.785V186.574C108.062 185.6 107.839 184.881 107.391 184.417C106.943 183.949 106.263 183.714 105.352 183.714H102.844V181.824H105.547C108.641 181.824 110.188 183.371 110.188 186.464V186.863ZM117.609 181.777C118.938 181.777 119.904 182.167 120.508 182.949C121.112 183.725 121.414 184.938 121.414 186.589V191.519H116.375V189.628H119.289V186.753C119.289 185.654 119.156 184.868 118.891 184.394C118.63 183.915 118.169 183.675 117.508 183.675C116.898 183.675 116.385 183.98 115.969 184.589C115.552 185.214 115.164 186.256 114.805 187.714L113.859 191.519H111.609L112.664 187.472C112.794 186.983 112.919 186.545 113.039 186.16C113.164 185.774 113.284 185.444 113.398 185.167L111.461 181.933H113.797L114.531 183.308C114.844 182.829 115.271 182.454 115.812 182.183C116.359 181.912 116.958 181.777 117.609 181.777ZM123.586 186.621C123.586 186.277 123.62 185.92 123.688 185.55C123.76 185.175 123.859 184.826 123.984 184.503C124.109 184.175 124.255 183.912 124.422 183.714H122.945V181.824H128.367C129.935 181.824 131.07 182.154 131.773 182.816C132.482 183.477 132.836 184.542 132.836 186.011V186.636C132.836 188.298 132.435 189.553 131.633 190.402C130.831 191.251 129.648 191.675 128.086 191.675C126.555 191.675 125.422 191.277 124.688 190.48C123.953 189.678 123.586 188.472 123.586 186.863V186.621ZM126.258 183.714C125.94 184.266 125.781 185.194 125.781 186.496V186.847C125.781 187.826 125.977 188.563 126.367 189.058C126.758 189.548 127.346 189.792 128.133 189.792C129.008 189.792 129.641 189.54 130.031 189.035C130.427 188.529 130.625 187.709 130.625 186.574V185.996C130.625 185.183 130.435 184.6 130.055 184.246C129.68 183.891 129.065 183.714 128.211 183.714H126.258ZM140.406 181.777C141.734 181.777 142.701 182.167 143.305 182.949C143.909 183.725 144.211 184.938 144.211 186.589V191.519H139.172V189.628H142.086V186.753C142.086 185.654 141.953 184.868 141.688 184.394C141.427 183.915 140.966 183.675 140.305 183.675C139.695 183.675 139.182 183.98 138.766 184.589C138.349 185.214 137.961 186.256 137.602 187.714L136.656 191.519H134.406L135.461 187.472C135.591 186.983 135.716 186.545 135.836 186.16C135.961 185.774 136.081 185.444 136.195 185.167L134.258 181.933H136.594L137.328 183.308C137.641 182.829 138.068 182.454 138.609 182.183C139.156 181.912 139.755 181.777 140.406 181.777ZM153.125 181.824V194.527H151.016V181.824H153.125ZM157.953 181.824V186.972H155.844V181.824H157.953ZM162.5 188.691L162.016 191.519H159.828L160.484 188.285C160.672 187.389 160.844 186.751 161 186.371C161.156 185.985 161.349 185.681 161.578 185.457C161.812 185.227 162.135 185.024 162.547 184.847L160.289 181.824H162.852L166.016 186.207C166.344 185.91 166.594 185.561 166.766 185.16C166.938 184.759 167.06 184.217 167.133 183.535L167.297 181.824H169.453L169.266 183.675C169.208 184.201 169.104 184.667 168.953 185.074C168.849 185.35 168.721 185.61 168.57 185.855C168.419 186.095 168.221 186.35 167.977 186.621C167.737 186.886 167.419 187.196 167.023 187.55L169.938 191.519H167.391L163.492 186.113C163.216 186.274 163.018 186.509 162.898 186.816C162.841 186.972 162.779 187.207 162.711 187.519C162.643 187.832 162.573 188.222 162.5 188.691Z" fill="#31312B"/>
</svg>
